<svg width="499" height="238" viewBox="0 0 499 238" fill="none" xmlns="http://www.w3.org/2000/svg">
<path fill-rule="evenodd" clip-rule="evenodd" d="M134.851 -25.2516L134.133 -25.1254C117.882 -22.142 100.499 -25.3563 85.8681 -35.4527C71.2374 -45.5491 62.0868 -60.6121 59.12 -76.8363L0.0848685 -66.0136C5.79298 -34.7135 23.4623 -5.58873 51.7336 13.8943C79.9809 33.3776 113.519 39.5535 144.894 33.8132C161.121 30.8299 178.504 34.0449 193.134 44.1173C207.765 54.2137 216.916 69.3 219.882 85.5243C225.59 116.824 243.259 145.949 271.53 165.432C299.777 184.915 333.316 191.094 364.667 185.354C380.918 182.37 398.301 185.585 412.932 195.681C427.562 205.753 436.713 220.84 439.68 237.065L498.715 226.242C493.007 194.942 475.314 165.817 447.066 146.334C418.795 126.851 385.282 120.675 353.907 126.415C337.68 129.398 320.296 126.183 305.666 116.111C291.035 106.015 281.884 90.9282 278.918 74.7039C273.209 43.4038 255.541 14.279 227.27 -5.20399C199.24 -24.5215 166.013 -30.7743 134.851 -25.2516Z" fill="#FFEF00"/>
</svg>
