<svg width="303" height="313" viewBox="0 0 303 313" fill="none" xmlns="http://www.w3.org/2000/svg">
<path fill-rule="evenodd" clip-rule="evenodd" d="M276.279 171.129C293.662 151.842 303.681 125.92 302.109 97.8549C300.536 69.7896 287.736 44.9176 268.307 27.4C248.878 9.88236 222.871 -0.235693 194.799 1.10177C166.728 2.43922 141.936 15.0424 124.554 34.3292L26.8905 142.694C9.50867 161.98 -0.461574 187.947 1.11074 216.012C2.68307 244.078 15.4337 268.905 34.8625 286.423C54.2914 303.94 80.3482 314.103 108.42 312.766C136.492 311.428 161.234 298.78 178.616 279.494L276.279 171.129ZM231.563 130.811C238.691 122.902 242.766 112.237 242.141 100.746C241.516 89.2536 236.217 79.0189 228.255 71.8403C220.294 64.6617 209.618 60.4938 198.125 61.0601C186.633 61.6258 176.449 66.7822 169.32 74.6917L71.6567 183.056C64.5286 190.965 60.4534 201.63 61.079 213.122C61.7042 224.614 66.9531 234.803 74.9149 241.982C82.8767 249.161 93.6017 253.374 105.095 252.808C116.587 252.242 126.771 247.085 133.899 239.176L231.563 130.811Z" fill="#FFEF00"/>
</svg>
