<svg width="202" height="496" viewBox="0 0 202 496" fill="none" xmlns="http://www.w3.org/2000/svg">
<path fill-rule="evenodd" clip-rule="evenodd" d="M0.148438 74.5848C100.267 -24.5349 262.322 -23.5472 361.738 76.8677L361.721 76.8845C460.914 177.316 460.209 339.208 360.165 438.254L317.909 395.572C394.616 319.63 395.09 195.602 318.994 118.742L319.011 118.725C242.896 42.0873 119.031 41.3917 42.3988 117.26L0.148438 74.5848ZM80.0162 155.347C134.032 101.869 221.474 102.377 275.098 156.539L275.09 156.547C328.599 210.721 328.193 298.074 274.216 351.513L231.96 308.832C262.502 278.594 262.66 229.225 232.358 198.619L232.366 198.612C202.055 168.123 152.771 167.824 122.268 198.023L80.0162 155.347ZM158.186 350.687C126.431 318.531 126.675 266.685 158.712 234.968L200.966 277.648C192.387 286.142 192.352 299.992 200.862 308.588L200.854 308.595C209.37 317.115 223.165 317.193 231.719 308.724L273.973 351.403C241.911 383.145 190.008 382.844 158.179 350.695L158.186 350.687ZM121.348 394.715C175.377 449.103 263.26 449.61 317.62 395.792L359.88 438.476C281.968 515.611 155.881 514.859 78.5487 436.75L78.5631 436.736C1.39926 358.612 1.96872 232.656 79.8241 155.577L122.081 198.258C67.6632 252.133 67.3477 340.144 121.362 394.701L121.348 394.715Z" fill="#FFEF00"/>
</svg>
