<svg width="223" height="253" viewBox="0 0 223 253" fill="none" xmlns="http://www.w3.org/2000/svg">
<g filter="url(#filter0_d_32_182)">
<path fill-rule="evenodd" clip-rule="evenodd" d="M96.9234 33.6719L93.3902 36.933C85.9995 37.4317 80.8608 40.3152 78.0133 44.2383L73.1509 49.2095C71.5332 50.4959 70.206 52.0191 69.1877 53.7485C67.033 57.408 66.3159 62.0969 67.6536 67.4956L67.4028 68.2854C65.1353 69.9447 63.2721 72.3791 62.0168 75.9721L62.0349 75.9413C57.9651 85.7754 39.5219 129.518 37.4484 134.501C35.7208 137.8 35.1061 141.767 35.8333 146.194L31.2358 157.654C29.315 161.465 28.8173 167.058 30.9676 173.633C34.3677 183.748 44.8904 198.018 62.6126 208.646C80.3348 219.274 97.7854 221.778 108.213 219.957C115.043 218.766 119.594 215.603 121.996 212.071C121.992 212.079 129.768 202.525 129.768 202.525C134.043 201.108 137.122 198.619 139.163 195.518L178.118 146.16C181.054 143.001 182.311 139.952 182.624 137.047L182.921 136.724C188.427 135.409 192.183 132.5 194.355 128.81C195.374 127.08 196.065 125.176 196.336 123.071C196.332 123.079 198.408 116.448 198.408 116.448C200.382 112 200.439 106.059 197.34 99.2698L198.48 94.5943C200.403 90.2319 200.21 84.3498 196.611 77.6785C191.423 68.2264 177.797 55.2077 159.439 44.1987C141.24 33.2851 123.325 27.368 112.707 27.3208C105.1 27.2723 99.8799 29.9291 96.9234 33.6719Z" fill="white"/>
<path fill-rule="evenodd" clip-rule="evenodd" d="M179.209 124.954L113.451 206.193C109.569 212.789 88.7906 213.121 67.4152 200.296C46.0398 187.472 36.3939 168.888 40.2758 162.292L79.5093 65.1387L179.209 124.954Z" fill="#F170E1"/>
<path fill-rule="evenodd" clip-rule="evenodd" d="M169.72 139.785L170.083 139.281C170.083 139.281 169.851 139.503 169.73 139.594C162.355 145.412 137.969 138.758 112.61 123.54C87.1506 108.263 69.6574 89.722 71.3451 80.4255C71.3736 80.3769 71.3949 80.2258 71.3949 80.2258C71.3949 80.2258 71.3199 80.4104 71.2914 80.459C67.0494 90.8822 46.6295 139.303 46.6295 139.303C41.6608 147.747 56.4295 165.867 79.5425 179.737C102.656 193.606 125.477 198.042 130.446 189.598L169.72 139.785Z" fill="#1B1B1B"/>
<mask id="mask0_32_182" style="mask-type:luminance" maskUnits="userSpaceOnUse" x="45" y="80" width="126" height="114">
<path d="M169.719 139.8L170.083 139.296C170.083 139.296 169.851 139.518 169.73 139.609C162.356 145.426 137.968 138.766 112.605 123.545C87.1414 108.264 69.6435 89.7207 71.329 80.4254C71.3576 80.3769 71.3788 80.2258 71.3788 80.2258C71.3788 80.2258 71.3039 80.4104 71.2753 80.4589C67.0358 90.8802 46.6269 139.292 46.6269 139.292C41.6602 147.734 56.4334 165.856 79.5501 179.729C102.667 193.602 125.49 198.042 130.456 189.6L169.719 139.8Z" fill="white"/>
</mask>
<g mask="url(#mask0_32_182)">
<path fill-rule="evenodd" clip-rule="evenodd" d="M146.837 125.393C152.653 128.5 154.983 135.613 152.036 141.268L158.954 144.963C163.839 135.59 159.981 123.801 150.349 118.655L146.837 125.393Z" fill="#F170E1"/>
<path fill-rule="evenodd" clip-rule="evenodd" d="M163.744 160.937C157.929 157.831 155.599 150.717 158.546 145.062L151.628 141.367C146.743 150.74 150.6 162.529 160.233 167.675L163.744 160.937Z" fill="#EF6941"/>
<path fill-rule="evenodd" clip-rule="evenodd" d="M128.478 125.6C122.662 122.493 120.332 115.38 123.279 109.725L116.361 106.029C111.476 115.403 115.333 127.192 124.966 132.338L128.478 125.6Z" fill="#FFD300"/>
<path fill-rule="evenodd" clip-rule="evenodd" d="M124.566 132.251C130.382 135.358 132.712 142.471 129.765 148.126L136.683 151.822C141.568 142.448 137.71 130.659 128.078 125.513L124.566 132.251Z" fill="#F170E1"/>
<path fill-rule="evenodd" clip-rule="evenodd" d="M141.473 167.796C135.658 164.689 133.328 157.576 136.275 151.921L129.357 148.226C124.472 157.599 128.329 169.388 137.962 174.534L141.473 167.796Z" fill="#EF6941"/>
<path fill-rule="evenodd" clip-rule="evenodd" d="M137.554 174.443C143.37 177.549 145.699 184.663 142.753 190.318L149.671 194.013C154.556 184.639 150.698 172.85 141.065 167.705L137.554 174.443Z" fill="#FFEF00"/>
<path fill-rule="evenodd" clip-rule="evenodd" d="M106.207 132.459C100.391 129.353 98.0613 122.24 101.008 116.585L94.09 112.889C89.2051 122.263 93.0625 134.052 102.695 139.197L106.207 132.459Z" fill="#FFEF00"/>
<path fill-rule="evenodd" clip-rule="evenodd" d="M102.295 139.111C108.111 142.217 110.441 149.331 107.494 154.986L114.412 158.681C119.297 149.307 115.439 137.518 105.807 132.373L102.295 139.111Z" fill="#F170E1"/>
<path fill-rule="evenodd" clip-rule="evenodd" d="M119.202 174.655C113.386 171.548 111.056 164.435 114.003 158.78L107.085 155.085C102.2 164.458 106.058 176.247 115.691 181.393L119.202 174.655Z" fill="#EF6941"/>
<path fill-rule="evenodd" clip-rule="evenodd" d="M115.282 181.301C121.098 184.408 123.427 191.521 120.481 197.176L127.399 200.871C132.284 191.498 128.426 179.709 118.793 174.563L115.282 181.301Z" fill="#FFEF00"/>
<path fill-rule="evenodd" clip-rule="evenodd" d="M70.9515 97.1601C65.1359 94.0536 62.8059 86.9404 65.7529 81.2855L58.8346 77.59C53.9497 86.9636 57.8071 98.7526 67.4401 103.898L70.9515 97.1601Z" fill="#F170E1"/>
<path fill-rule="evenodd" clip-rule="evenodd" d="M67.0236 103.803C72.8392 106.909 75.1692 114.022 72.2222 119.677L79.1405 123.373C84.0254 113.999 80.168 102.21 70.535 97.0647L67.0236 103.803Z" fill="#EF6941"/>
<path fill-rule="evenodd" clip-rule="evenodd" d="M83.9354 139.318C78.1197 136.212 75.7898 129.099 78.7368 123.444L71.8185 119.748C66.9336 129.122 70.791 140.911 80.424 146.056L83.9354 139.318Z" fill="#FFEF00"/>
<path fill-rule="evenodd" clip-rule="evenodd" d="M80.0241 145.97C85.8397 149.076 88.1697 156.189 85.2227 161.844L92.141 165.54C97.0258 156.166 93.1685 144.377 83.5355 139.232L80.0241 145.97Z" fill="#F170E1"/>
<path fill-rule="evenodd" clip-rule="evenodd" d="M96.931 181.515C91.1153 178.408 88.7854 171.295 91.7324 165.64L84.8141 161.944C79.9292 171.318 83.7866 183.107 93.4196 188.253L96.931 181.515Z" fill="#EF6941"/>
<path fill-rule="evenodd" clip-rule="evenodd" d="M93.0114 188.161C98.827 191.267 101.157 198.38 98.21 204.035L105.128 207.731C110.013 198.357 106.156 186.568 96.5228 181.423L93.0114 188.161Z" fill="#FFEF00"/>
<path fill-rule="evenodd" clip-rule="evenodd" d="M44.7526 110.662C50.5682 113.768 52.8982 120.881 49.9512 126.536L56.8695 130.232C61.7544 120.858 57.897 109.069 48.264 103.924L44.7526 110.662Z" fill="#EF6941"/>
<path fill-rule="evenodd" clip-rule="evenodd" d="M61.6648 146.178C55.8492 143.071 53.5193 135.958 56.4662 130.303L49.548 126.608C44.6631 135.981 48.5205 147.77 58.1535 152.916L61.6648 146.178Z" fill="#FFEF00"/>
<path fill-rule="evenodd" clip-rule="evenodd" d="M57.7526 152.829C63.5682 155.935 65.8982 163.048 62.9512 168.703L69.8695 172.399C74.7544 163.025 70.897 151.236 61.264 146.091L57.7526 152.829Z" fill="#F170E1"/>
</g>
<path fill-rule="evenodd" clip-rule="evenodd" d="M87.0806 50.4239C88.793 47.5664 92.9116 46.3733 98.6726 46.6917L105.634 40.2395L105.658 40.1984C109.935 33.1352 132.006 38.5701 154.995 52.3502C178.046 66.1681 193.337 83.1573 189.133 90.2915L186.84 99.5425C189.892 104.507 190.809 108.746 189.106 111.637L186.602 119.846C186.53 120.885 186.236 121.818 185.741 122.659C180.377 131.761 152.123 124.84 122.677 107.189C93.2319 89.5383 73.7005 67.8155 79.0646 58.7133C79.5599 57.8728 80.2324 57.1662 81.1032 56.6062L87.0564 50.4649L87.0806 50.4239Z" fill="white"/>
<path fill-rule="evenodd" clip-rule="evenodd" d="M156.094 50.6411C139.636 40.779 123.619 35.1822 114.037 35.1518C109.219 35.1342 105.881 36.5559 104.38 39.105C102.878 41.6542 103.235 45.2898 105.554 49.5491C110.163 58.0222 122.695 69.5331 139.153 79.3951C155.611 89.2572 171.628 94.854 181.21 94.8844C186.028 94.902 189.365 93.4803 190.867 90.9312C192.369 88.382 192.012 84.7464 189.692 80.4871C185.084 72.014 172.552 60.5031 156.094 50.6411ZM154.292 53.7C167.832 61.8136 178.662 71.0074 184.263 78.6135C186.017 80.9887 187.248 83.189 187.823 85.1062C188.278 86.648 188.331 88.0043 187.718 89.0443C187.106 90.0843 185.899 90.6858 184.339 91.0201C182.394 91.4278 179.889 91.389 176.983 90.9716C167.68 89.6465 154.495 84.4497 140.955 76.3362C127.415 68.2226 116.585 59.0288 110.983 51.4227C109.23 49.0475 107.998 46.8472 107.424 44.93C106.969 43.3882 106.916 42.032 107.528 40.9919C108.141 39.9519 109.348 39.3504 110.908 39.0161C112.852 38.6084 115.357 38.6472 118.264 39.0646C127.567 40.3897 140.752 45.5865 154.292 53.7Z" fill="black"/>
<path fill-rule="evenodd" clip-rule="evenodd" d="M182.947 80.235L182.59 80.0149C178.733 77.7026 174.962 76.4474 172.717 76.4419C171.046 76.4337 169.955 77.0842 169.434 77.969C168.913 78.8537 168.868 80.132 169.674 81.6089C170.753 83.5963 173.648 86.3378 177.505 88.6501C181.361 90.9623 185.132 92.2175 187.377 92.223C189.048 92.2312 190.14 91.5808 190.661 90.696C191.182 89.8112 191.226 88.5329 190.42 87.056C189.374 85.1297 186.623 82.4987 182.947 80.235ZM187.178 88.6076C186.98 88.6087 186.764 88.5989 186.574 88.5752C184.695 88.3042 182.044 87.2296 179.307 85.5888C176.571 83.9481 174.368 82.1126 173.233 80.5764C173.122 80.42 173.01 80.2332 172.917 80.0574C173.115 80.0563 173.331 80.0661 173.52 80.0898C175.4 80.3608 178.051 81.4354 180.787 83.0761C183.524 84.7168 185.726 86.5523 186.861 88.0886C186.972 88.245 187.084 88.4317 187.178 88.6076Z" fill="black"/>
<path fill-rule="evenodd" clip-rule="evenodd" d="M179.081 85.9005C172.515 86.114 158.666 80.6485 143.873 71.789C130.584 63.8304 120.057 55.207 115.857 49.2132C115.079 48.097 114.52 47.0949 114.285 46.2341C114.135 45.7577 114.066 45.3472 114.25 45.0356C114.433 44.724 114.824 44.589 115.311 44.4942C116.173 44.2903 117.314 44.3057 118.659 44.4612C125.89 45.3133 138.437 50.5089 151.726 58.4676C165.988 67.0091 177.685 77.1411 181.145 83.1309L184.281 81.4255C180.65 75.1574 168.47 64.3841 153.517 55.4293C139.662 47.1315 126.527 41.7951 118.962 40.9008C116.725 40.6331 114.923 40.766 113.626 41.2191C112.454 41.6238 111.613 42.2793 111.1 43.1492C110.587 44.0191 110.418 45.0774 110.626 46.3087C110.851 47.6733 111.597 49.3322 112.9 51.184C117.296 57.4536 128.227 66.5295 142.082 74.8273C157.689 84.1742 172.402 89.7179 179.315 89.4839L179.081 85.9005Z" fill="black"/>
<path fill-rule="evenodd" clip-rule="evenodd" d="M99.3903 49.0142L99.4143 48.9735C100.697 47.7595 107.026 41.6924 107.026 41.6924L104.453 39.0773L96.6345 46.565L97.685 49.6449L96.3526 46.9469C94.7814 49.6128 95.1393 53.4344 97.5857 57.901C102.467 66.8544 115.731 79.0115 133.157 89.4494C150.563 99.8747 167.519 105.817 177.653 105.857C182.693 105.875 186.194 104.365 187.765 101.699L187.885 101.495L190.748 90.7643L187.24 89.7368L184.512 99.9978C183.825 101.018 182.587 101.626 180.996 101.967C178.901 102.392 176.246 102.371 173.16 101.927C163.299 100.509 149.301 94.9883 134.957 86.3968C120.591 77.7928 109.089 68.0397 103.159 59.9997C101.296 57.4797 99.9871 55.1264 99.3766 53.0811C98.8918 51.4966 98.8295 50.1102 99.3903 49.0142Z" fill="black"/>
<path fill-rule="evenodd" clip-rule="evenodd" d="M99.9301 48.2898L98.6971 45.1846C92.0948 44.8362 87.4927 46.4836 85.5502 49.7789C83.7756 52.7893 84.2264 57.0774 86.9535 62.1232C92.5813 72.4012 107.829 86.3764 127.851 98.366C147.851 110.343 167.32 117.158 178.968 117.225C184.668 117.226 188.641 115.588 190.416 112.577C192.359 109.282 191.593 104.42 188.112 98.73L184.816 99.1233C184.744 99.4379 184.618 99.7478 184.462 100.012C183.803 101.131 182.509 101.787 180.819 102.151C178.725 102.576 176.07 102.555 172.985 102.111C163.127 100.694 149.133 95.1759 134.793 86.5885C120.433 77.9886 108.933 68.2402 103.005 60.2041C101.143 57.6852 99.8343 55.333 99.224 53.2887C98.7124 51.6063 98.6651 50.1468 99.3246 49.028C99.4805 48.7636 99.6904 48.504 99.9301 48.2898ZM95.5142 48.7552C94.8302 51.2629 95.44 54.463 97.4337 58.1063C102.313 67.0555 115.573 79.2068 132.995 89.6397C150.396 100.06 167.346 106 177.477 106.04C181.584 106.05 184.664 105.059 186.522 103.255C187.082 104.471 187.483 105.619 187.704 106.687C188.006 108.244 187.919 109.596 187.271 110.694C186.468 112.057 184.928 112.841 182.887 113.27C180.452 113.793 177.366 113.734 173.775 113.235C162.401 111.598 146.233 105.246 129.649 95.3149C113.066 85.3842 99.7793 74.0971 92.9348 64.8243C90.7611 61.8713 89.2341 59.1682 88.5251 56.7621C87.9238 54.7507 87.8706 53.0124 88.674 51.6496C89.3215 50.5511 90.4571 49.8276 91.9581 49.3504C92.9948 49.0354 94.1871 48.8412 95.5142 48.7552Z" fill="black"/>
<path fill-rule="evenodd" clip-rule="evenodd" d="M186.908 111.306L183.645 122.04C182.766 123.386 181.193 124.178 179.12 124.615C176.564 125.149 173.326 125.109 169.531 124.57C157.65 122.877 140.729 116.212 123.39 105.828C106.031 95.4324 92.1533 83.6538 84.9762 73.9336C82.7126 70.8441 81.108 67.984 80.372 65.479C79.7407 63.422 79.6784 61.6507 80.4519 60.2423L88.2231 52.208L85.5909 49.6958L77.5109 58.0131L77.403 58.1963C75.5563 61.329 76.0399 65.8023 78.8869 71.0301C84.7274 81.7664 100.689 96.3619 121.592 108.88C142.495 121.397 162.824 128.535 174.993 128.584C180.91 128.605 185.039 126.894 186.886 123.761L186.993 123.578L190.377 112.448L186.908 111.306Z" fill="black"/>
<path fill-rule="evenodd" clip-rule="evenodd" d="M175.409 125.34L164.324 139.013L167.233 141.351L178.318 127.678L175.409 125.34Z" fill="black"/>
<path fill-rule="evenodd" clip-rule="evenodd" d="M121.013 193.206L111.076 205.457L111.009 205.57C110.412 206.585 109.247 207.362 107.693 207.957C105.863 208.665 103.54 209.052 100.814 209.148C92.2769 209.421 80.1475 206.549 67.8051 199.15C55.4627 191.751 47.1633 182.375 43.3194 174.679C42.0989 172.218 41.3259 169.975 41.0672 168.014C40.8414 166.353 40.9612 164.949 41.5589 163.934L41.6253 163.822L47.6082 148.996L44.2391 147.561L38.3393 162.157C37.0579 164.466 36.9894 167.96 38.3831 172.127C41.2975 180.868 50.6791 193.029 66.0007 202.214C81.3224 211.399 96.3936 213.898 105.396 212.302C109.69 211.544 112.699 209.813 114.096 207.573L123.854 195.493L121.013 193.206Z" fill="black"/>
<path fill-rule="evenodd" clip-rule="evenodd" d="M74.6519 85.6076L81.2865 69.2738L77.8547 67.8212L71.2201 84.155L74.6519 85.6076Z" fill="black"/>
<path fill-rule="evenodd" clip-rule="evenodd" d="M170.209 133.159C170.346 134.347 170.221 135.411 169.696 136.301C168.93 137.599 167.439 138.366 165.495 138.765C163.147 139.279 160.166 139.22 156.697 138.739C145.695 137.166 130.074 131.04 114.05 121.452C98.0263 111.863 85.2148 100.976 78.5828 91.9965C76.5042 89.1584 75.0273 86.5499 74.3536 84.227C73.7715 82.3169 73.7272 80.6311 74.4934 79.3325C75.0183 78.4427 75.8369 77.7938 76.9632 77.3615L75.5542 74.0128C73.5884 74.7888 72.2809 75.9261 71.3729 77.4652C69.642 80.3991 70.0694 84.5593 72.7477 89.4483C78.1324 99.4058 92.92 112.907 112.263 124.482C131.605 136.056 150.451 142.68 161.709 142.682C167.253 142.713 171.086 141.102 172.817 138.168C173.696 136.677 174.042 134.899 173.8 132.867L170.209 133.159Z" fill="black"/>
<path fill-rule="evenodd" clip-rule="evenodd" d="M169.706 136.849L128.921 188.547L128.861 188.65C128.076 189.983 126.695 190.875 124.897 191.406C122.788 192.029 120.17 192.206 117.138 191.969C107.48 191.198 94.025 186.343 80.4501 178.197C66.8753 170.05 56.2208 160.436 50.932 152.238C49.2766 149.662 48.1792 147.254 47.7121 145.086C47.3144 143.238 47.4294 141.586 48.214 140.252L48.2743 140.149L73.7322 79.2535L70.345 77.776L44.9869 138.454C42.8292 142.267 43.8566 147.853 47.8911 154.105C53.4 162.657 64.4858 172.752 78.6517 181.254C92.8177 189.755 106.897 194.762 116.968 195.559C124.334 196.149 129.683 194.39 131.967 190.653L172.61 139.147L169.706 136.849Z" fill="black"/>
</g>
<defs>
<filter id="filter0_d_32_182" x="21.5615" y="23.3203" width="186.234" height="209.18" filterUnits="userSpaceOnUse" color-interpolation-filters="sRGB">
<feFlood flood-opacity="0" result="BackgroundImageFix"/>
<feColorMatrix in="SourceAlpha" type="matrix" values="0 0 0 0 0 0 0 0 0 0 0 0 0 0 0 0 0 0 127 0" result="hardAlpha"/>
<feOffset dy="4"/>
<feGaussianBlur stdDeviation="4"/>
<feComposite in2="hardAlpha" operator="out"/>
<feColorMatrix type="matrix" values="0 0 0 0 0.816667 0 0 0 0 0.268819 0 0 0 0 0.519742 0 0 0 1 0"/>
<feBlend mode="normal" in2="BackgroundImageFix" result="effect1_dropShadow_32_182"/>
<feBlend mode="normal" in="SourceGraphic" in2="effect1_dropShadow_32_182" result="shape"/>
</filter>
</defs>
</svg>
