<svg width="363" height="418" viewBox="0 0 363 418" fill="none" xmlns="http://www.w3.org/2000/svg">
<path fill-rule="evenodd" clip-rule="evenodd" d="M127.256 476.782C5.60153 405.729 -35.3876 248.94 35.8751 126.922L35.8958 126.934C107.232 5.1275 263.79 -36.092 385.354 34.9079L355.064 86.7715C261.856 32.3335 141.932 63.9765 87.3853 157.372L87.365 157.36C33.0385 250.717 64.4251 370.541 157.542 424.926L127.256 476.782ZM184.595 378.733C118.959 340.398 96.818 255.804 135.256 189.99L135.265 189.995C173.744 124.288 258.226 102.072 323.814 140.379L293.525 192.242C256.412 170.566 208.684 183.192 186.964 220.382L186.955 220.377C165.35 257.546 177.817 305.228 214.882 326.875L184.595 378.733ZM353.048 252.669C330.206 291.664 280.063 304.847 241.136 282.111L271.424 230.25C281.85 236.339 295.238 232.788 301.338 222.343L301.346 222.349C307.372 211.917 303.877 198.573 293.483 192.502L323.771 140.642C362.729 163.396 375.872 213.608 353.057 252.674L353.048 252.669ZM405.11 276.856C443.661 210.592 421.405 125.572 355.351 86.9931L385.643 35.1258C480.315 90.4192 512.222 212.405 456.79 307.318L456.772 307.308C401.282 402.062 279.47 434.112 184.867 378.859L215.157 326.996C281.28 365.615 366.374 343.141 405.093 276.846L405.11 276.856Z" fill="white"/>
</svg>
