<svg width="387" height="296" viewBox="0 0 387 296" fill="none" xmlns="http://www.w3.org/2000/svg">
<path fill-rule="evenodd" clip-rule="evenodd" d="M134.851 32.7484L134.133 32.8746C117.882 35.858 100.499 32.6437 85.8681 22.5473C71.2374 12.4509 62.0868 -2.61205 59.12 -18.8363L0.0848685 -8.01356C5.79298 23.2865 23.4623 52.4113 51.7336 71.8943C79.9809 91.3776 113.519 97.5535 144.894 91.8132C161.121 88.8299 178.504 92.0449 193.134 102.117C207.765 112.214 216.916 127.3 219.882 143.524C225.59 174.824 243.259 203.949 271.53 223.432C299.777 242.915 333.316 249.094 364.667 243.354C380.918 240.37 398.301 243.585 412.932 253.681C427.562 263.753 436.713 278.84 439.68 295.065L498.715 284.242C493.007 252.942 475.314 223.817 447.066 204.334C418.795 184.851 385.282 178.675 353.907 184.415C337.68 187.398 320.296 184.183 305.666 174.111C291.035 164.015 281.884 148.928 278.918 132.704C273.209 101.404 255.541 72.279 227.27 52.796C199.24 33.4785 166.013 27.2257 134.851 32.7484Z" fill="white"/>
</svg>
