<svg width="212" height="313" viewBox="0 0 212 313" fill="none" xmlns="http://www.w3.org/2000/svg">
<path fill-rule="evenodd" clip-rule="evenodd" d="M185.279 171.129C202.662 151.842 212.681 125.92 211.109 97.855C209.536 69.7896 196.736 44.9177 177.307 27.4C157.878 9.88242 131.871 -0.235632 103.799 1.10183C75.7277 2.43928 50.9364 15.0424 33.5541 34.3293L-64.1095 142.694C-81.4913 161.98 -91.4616 187.947 -89.8893 216.012C-88.3169 244.078 -75.5663 268.905 -56.1375 286.423C-36.7086 303.941 -10.6518 314.103 17.4199 312.766C45.4916 311.428 70.2339 298.78 87.6157 279.494L185.279 171.129ZM140.563 130.811C147.691 122.902 151.766 112.238 151.141 100.746C150.516 89.2536 145.217 79.019 137.255 71.8404C129.294 64.6618 118.618 60.4939 107.125 61.0601C95.6328 61.6259 85.4488 66.7823 78.3203 74.6918L-19.3433 183.056C-26.4714 190.965 -30.5466 201.63 -29.921 213.122C-29.2958 224.614 -24.0469 234.803 -16.0851 241.982C-8.12328 249.161 2.60174 253.374 14.0946 252.808C25.587 252.242 35.7709 247.085 42.899 239.176L140.563 130.811Z" fill="white"/>
</svg>
