<svg width="246" height="40" viewBox="0 0 246 40" fill="none" xmlns="http://www.w3.org/2000/svg">
<g id="Logo">
<g id="Group">
<g id="Group_2">
<g id="Group_3">
<path id="Vector" d="M25.8282 33.0785V39.3159H0V34.3582L16.0794 14.7779H0.533953V8.50647H25.8188L25.8282 13.3451L9.60787 33.1139L25.8282 33.0785Z" fill="black"/>
</g>
<g id="Group_4">
<path id="Vector_2" d="M200.62 33.0785V39.3159H174.792V34.3582L190.871 14.7779H175.325V8.50647H200.61L200.62 13.3451L184.399 33.1139L200.62 33.0785Z" fill="black"/>
</g>
<g id="Group_5">
<path id="Vector_3" d="M50.3723 28.7836L55.2411 15.673L60.1263 28.7836H50.3723ZM58.795 8.48826L51.7339 8.48685L39.2573 39.36L46.3769 39.3468L48.1295 34.528H62.2419L64.0982 39.36L71.2314 39.3595L58.795 8.48826Z" fill="black"/>
</g>
<g id="Group_6">
<path id="Vector_4" d="M225.141 28.7836L230.01 15.673L234.895 28.7836H225.141ZM233.564 8.48826L226.502 8.48685L214.026 39.36L221.145 39.3468L222.898 34.528H237.01L238.867 39.36L246 39.3595L233.564 8.48826Z" fill="black"/>
</g>
<g id="Group_7">
<path id="Vector_5" d="M85.7046 39.32H92.2237V19.5852L108.108 39.3308L113.798 39.3469V8.50916H107.354L107.382 28.3568L91.4145 8.49593L85.7046 8.48224V39.32Z" fill="black"/>
</g>
<g id="Group_8">
<path id="Vector_6" fill-rule="evenodd" clip-rule="evenodd" d="M155.897 11.8222L167.695 0L168.966 1.23693L157.132 13.0954C162.904 19.3885 162.722 29.1736 156.66 35.2848L156.587 35.3577C150.307 41.5416 140.216 41.5415 133.972 35.2848C127.692 28.9918 127.692 18.8428 133.972 12.5498L134.044 12.4769C140.07 6.51125 149.617 6.29307 155.897 11.8222ZM151.432 16.2964L144.1 23.6445L145.334 24.9176L152.703 17.4968C156.043 21.3526 155.861 27.1729 152.231 30.8469C148.42 34.6664 142.212 34.6664 138.401 30.8469C134.553 27.0274 134.553 20.8072 138.401 16.9877C141.958 13.3865 147.621 13.1681 151.432 16.2964Z" fill="black"/>
</g>
</g>
</g>
</g>
</svg>
